<svg xmlns="http://www.w3.org/2000/svg" viewBox="0 0 600 340" width="600" height="340">
  <rect width="600" height="340" fill="#141414"/>
  <!-- subtle grid -->
  <g stroke="#2a2a2a" stroke-width="1">
    <line x1="0" y1="68" x2="600" y2="68"/>
    <line x1="0" y1="136" x2="600" y2="136"/>
    <line x1="0" y1="204" x2="600" y2="204"/>
    <line x1="0" y1="272" x2="600" y2="272"/>
  </g>
  <!-- candlesticks -->
  <g>
    <line x1="60" y1="120" x2="60" y2="220" stroke="#D9FB06" stroke-width="2"/>
    <rect x="50" y="150" width="20" height="50" fill="#D9FB06"/>

    <line x1="110" y1="90" x2="110" y2="190" stroke="#ff5c5c" stroke-width="2"/>
    <rect x="100" y="110" width="20" height="60" fill="#ff5c5c"/>

    <line x1="160" y1="140" x2="160" y2="260" stroke="#D9FB06" stroke-width="2"/>
    <rect x="150" y="160" width="20" height="70" fill="#D9FB06"/>

    <line x1="210" y1="100" x2="210" y2="200" stroke="#D9FB06" stroke-width="2"/>
    <rect x="200" y="120" width="20" height="45" fill="#D9FB06"/>

    <line x1="260" y1="130" x2="260" y2="240" stroke="#ff5c5c" stroke-width="2"/>
    <rect x="250" y="150" width="20" height="55" fill="#ff5c5c"/>

    <line x1="310" y1="80" x2="310" y2="180" stroke="#D9FB06" stroke-width="2"/>
    <rect x="300" y="95" width="20" height="55" fill="#D9FB06"/>

    <line x1="360" y1="110" x2="360" y2="230" stroke="#D9FB06" stroke-width="2"/>
    <rect x="350" y="130" width="20" height="65" fill="#D9FB06"/>

    <line x1="410" y1="150" x2="410" y2="250" stroke="#ff5c5c" stroke-width="2"/>
    <rect x="400" y="165" width="20" height="50" fill="#ff5c5c"/>

    <line x1="460" y1="70" x2="460" y2="170" stroke="#D9FB06" stroke-width="2"/>
    <rect x="450" y="90" width="20" height="50" fill="#D9FB06"/>

    <line x1="510" y1="100" x2="510" y2="210" stroke="#D9FB06" stroke-width="2"/>
    <rect x="500" y="120" width="20" height="55" fill="#D9FB06"/>
  </g>
  <text x="30" y="40" font-family="monospace" font-size="22" fill="#D9FB06" font-weight="700">BTC/USDT</text>
  <text x="30" y="310" font-family="monospace" font-size="14" fill="#888">live · 1m candles</text>
</svg>
